1.9Hzlow3min_grf.mot
version=1
nRows=20
nColumns 19
inDegrees=yes
endheader
time	1_ground_force_vx	1_ground_force_vy	1_ground_force_vz	1_ground_force_px	1_ground_force_py	1_ground_force_pz	1_ground_torque_x	1_ground_torque_y	1_ground_torque_z	2_ground_force_vx	2_ground_force_vy	2_ground_force_vz	2_ground_force_px	2_ground_force_py	2_ground_force_pz	2_ground_torque_x	2_ground_torque_y	2_ground_torque_z
            2.502500	           12.799045	          269.096310	          -30.932112	           -0.235313	            0.006183	           -0.396122	            0.047044	            0.989086	           -0.113694	            8.275872	          240.643219	           20.940119	           -0.231070	            0.005591	           -0.681236	            0.000057	            0.001656	            0.000144
            2.503000	           13.213507	          266.930646	          -30.346281	           -0.235476	            0.006183	           -0.396036	            0.049238	            0.994682	           -0.113081	            8.660599	          237.882675	           20.836247	           -0.230881	            0.005591	           -0.681053	           -0.001606	           -0.044102	           -0.003863
            2.503500	           13.489220	          264.586882	          -30.265300	           -0.235363	            0.006180	           -0.395273	            0.051972	            1.019421	           -0.116609	            8.386687	          235.857025	           20.547571	           -0.230747	            0.005592	           -0.681397	            0.002167	            0.060937	            0.005309
            2.504000	           13.490397	          261.881687	          -30.001759	           -0.235430	            0.006182	           -0.395763	            0.047219	            0.916636	           -0.105012	            8.535754	          233.464616	           20.257400	           -0.230543	            0.005593	           -0.681217	           -0.000560	           -0.015318	           -0.001329
            2.504500	           13.767314	          259.175426	          -29.463765	           -0.235136	            0.006181	           -0.395550	            0.046616	            0.877567	           -0.099764	            8.781220	          230.335617	           20.058418	           -0.230591	            0.005592	           -0.681026	           -0.001702	           -0.044649	           -0.003888
            2.505000	           13.860291	          256.470052	          -29.154596	           -0.234860	            0.006182	           -0.395884	            0.045892	            0.849185	           -0.096532	            8.693460	          228.678286	           19.958689	           -0.230266	            0.005594	           -0.681473	           -0.000043	           -0.001119	           -0.000098
            2.505500	           13.906514	          253.766272	          -29.212160	           -0.234840	            0.006181	           -0.395603	            0.049180	            0.897433	           -0.103307	            8.886115	          227.206279	           19.812568	           -0.230571	            0.005596	           -0.682229	           -0.001480	           -0.037838	           -0.003299
            2.506000	           14.137573	          250.519372	          -28.722227	           -0.235210	            0.006183	           -0.395989	            0.049178	            0.871448	           -0.099912	            8.945510	          223.708291	           19.612352	           -0.230153	            0.005595	           -0.681525	            0.001632	            0.040819	            0.003579
            2.506500	           14.276195	          248.895631	          -28.408534	           -0.234255	            0.006181	           -0.395627	            0.054456	            0.949396	           -0.108362	            8.999589	          221.683491	           19.417392	           -0.230470	            0.005594	           -0.681662	            0.001167	            0.028751	            0.002518
            2.507000	           14.323101	          246.190672	          -28.190962	           -0.234115	            0.006181	           -0.395685	            0.053794	            0.924632	           -0.105878	            9.194258	          219.658863	           19.316228	           -0.230195	            0.005596	           -0.681971	            0.001137	            0.027171	            0.002389
            2.507500	           14.553837	          242.223495	          -27.887545	           -0.234095	            0.006182	           -0.395837	            0.054245	            0.902813	           -0.103942	            9.109055	          217.265776	           18.979229	           -0.230333	            0.005596	           -0.682036	           -0.000352	           -0.008400	           -0.000734
            2.508000	           14.875244	          241.321639	          -27.754638	           -0.233670	            0.006180	           -0.395333	            0.053221	            0.863403	           -0.099301	            9.076765	          213.214861	           18.824010	           -0.230012	            0.005593	           -0.680839	           -0.002334	           -0.054816	           -0.004840
            2.508500	           14.968008	          239.157289	          -27.489006	           -0.233941	            0.006177	           -0.394534	            0.047626	            0.760966	           -0.087466	            9.222528	          211.743019	           18.584053	           -0.229506	            0.005597	           -0.681527	            0.002286	            0.052495	            0.004607
            2.509000	           14.786367	          235.910505	          -27.043905	           -0.233590	            0.006179	           -0.395020	            0.047071	            0.750992	           -0.086091	            9.230463	          209.533573	           18.482312	           -0.229731	            0.005597	           -0.681724	            0.000547	            0.012413	            0.001095
            2.509500	           15.016629	          232.664981	          -26.874964	           -0.233262	            0.006181	           -0.395619	            0.054113	            0.838412	           -0.096844	            8.911071	          207.139108	           18.286197	           -0.229990	            0.005597	           -0.682045	            0.002188	            0.050856	            0.004490
            2.510000	           15.017479	          230.501007	          -26.700816	           -0.233503	            0.006180	           -0.395272	            0.054719	            0.839879	           -0.097290	            9.293805	          204.931016	           18.184297	           -0.229209	            0.005601	           -0.682256	            0.000005	            0.000109	            0.000010
            2.510500	           14.881340	          227.254822	          -26.393396	           -0.233540	            0.006179	           -0.394988	            0.053522	            0.817347	           -0.094927	            9.254828	          202.721904	           17.941792	           -0.229372	            0.005601	           -0.682267	            0.001037	            0.022717	            0.002011
            2.511000	           15.020076	          225.630884	          -26.033847	           -0.233195	            0.006178	           -0.394929	            0.053160	            0.798570	           -0.092141	            8.606158	          200.694596	           17.747131	           -0.229722	            0.005599	           -0.682235	            0.001293	            0.030150	            0.002666
            2.511500	           14.974903	          223.827629	          -25.903895	           -0.233084	            0.006177	           -0.394549	            0.046850	            0.700259	           -0.081042	            8.848965	          198.302160	           17.550777	           -0.229027	            0.005601	           -0.682017	            0.001436	            0.032180	            0.002848
            2.512000	           15.252588	          220.038761	          -25.141259	           -0.232934	            0.006178	           -0.394822	            0.049954	            0.720660	           -0.082341	            8.955190	          194.804540	           17.303612	           -0.228858	            0.005601	           -0.682001	            0.000044	            0.000954	            0.000085
